<svg xmlns="http://www.w3.org/2000/svg" viewBox="0 0 624.6 466.21"><defs><style>.cls-1{fill:#f0cf61;}.cls-2{fill:#4a6c9f;}</style></defs><title>Ativo 2</title><g id="Camada_2" data-name="Camada 2"><g id="Layer_1" data-name="Layer 1"><path class="cls-1" d="M313,225.58c72.86,0,146.62-19.32,146.62-56.24V116.73h-24C435.64,128.1,389.08,149,313,149s-122.65-20.9-122.65-32.27V64.81c0-11.38,46.56-32.28,122.65-32.28S435.64,53.42,435.64,64.81,389.08,97.08,313,97.08c-35.59,0-69.83-4.81-93.94-13.21l-7.88,22.63C238.1,115.88,274.26,121,313,121c72.86,0,146.62-19.31,146.62-56.23S385.84,8.57,313,8.57,166.37,27.88,166.37,64.81v51.92C166.37,153.64,240.13,173,313,173c47.33,0,95-8.15,122.65-24v20.36c0,11.38-46.56,32.27-122.65,32.27s-122.65-20.89-122.65-32.27h-24S166.88,225.58,313,225.58Z"/><path class="cls-2" d="M468.87,11.15a10.83,10.83,0,0,1-3.25,7.92,11.13,11.13,0,0,1-15.77,0,10.83,10.83,0,0,1-3.25-7.94,10.51,10.51,0,0,1,1.05-4.71,11,11,0,0,1,3-3.83,10.7,10.7,0,0,1,7-2.57,10.92,10.92,0,0,1,4.66,1A10.67,10.67,0,0,1,467,5.07,11,11,0,0,1,468.87,11.15ZM457.66,1.63a8.8,8.8,0,0,0-6.54,2.81,9.3,9.3,0,0,0-2.74,6.7,9.41,9.41,0,0,0,2.74,6.78,9.18,9.18,0,0,0,13.21,0,9.38,9.38,0,0,0,2.73-6.78A10.22,10.22,0,0,0,466,6.76a8.89,8.89,0,0,0-2.81-3.38A9.26,9.26,0,0,0,457.66,1.63Zm1.17,10.61L463,17.62h-3l-3.82-5.1v5.1h-2.46V4.74h2.57a6.44,6.44,0,0,1,3.93,1,3.54,3.54,0,0,1,1.38,2.91,3.77,3.77,0,0,1-.74,2.24A3.51,3.51,0,0,1,459,12.18Zm-2.66-1.78h.42q2.64,0,2.64-1.82t-2.56-1.69h-.5Z"/><path class="cls-2" d="M64.48,415.83A45,45,0,0,1,56,419.56a42.85,42.85,0,0,1-14.62,2.27,46.91,46.91,0,0,1-16.07-2.72,34.86,34.86,0,0,1-13.17-8.45,40.8,40.8,0,0,1-8.9-14.26A56.87,56.87,0,0,1,0,376.06a55.93,55.93,0,0,1,3.09-19,42.14,42.14,0,0,1,9-14.89,41.22,41.22,0,0,1,14.44-9.81,49.82,49.82,0,0,1,19.25-3.54,108.54,108.54,0,0,1,20.61,1.73q8.81,1.73,14.8,3.18V424.8q0,21.79-11.26,31.6t-34.15,9.81A92.91,92.91,0,0,1,19,464.76a96.14,96.14,0,0,1-13.71-3.45L8.35,446.6a78.92,78.92,0,0,0,12.44,3.54,74.6,74.6,0,0,0,15.35,1.55q15.07,0,21.7-6t6.63-19.07Zm-.18-70.11a56,56,0,0,0-6.81-1.36A82,82,0,0,0,46,343.73q-13.62,0-21,8.9t-7.36,23.61a41.45,41.45,0,0,0,2.09,14,27.66,27.66,0,0,0,5.63,9.63,22,22,0,0,0,8.17,5.63A25.88,25.88,0,0,0,43,407.3a38.27,38.27,0,0,0,12.35-1.91,30.32,30.32,0,0,0,8.9-4.45Z"/><path class="cls-2" d="M174.54,422.56q-5.81,1.45-15.35,3.09a131.89,131.89,0,0,1-22.07,1.64q-10.9,0-18.34-3.18a29.56,29.56,0,0,1-12-9,36.48,36.48,0,0,1-6.54-13.71,71.42,71.42,0,0,1-2-17.53v-53h16.89v49.4q0,17.26,5.45,24.7t18.34,7.45q2.72,0,5.63-.18t5.45-.45q2.54-.27,4.63-.55a13.58,13.58,0,0,0,3-.63V330.83h16.89Z"/><path class="cls-2" d="M201.06,313.76a10.83,10.83,0,0,1-7.72-3,11.87,11.87,0,0,1,0-16.16,11.44,11.44,0,0,1,15.44,0,11.87,11.87,0,0,1,0,16.16A10.85,10.85,0,0,1,201.06,313.76Zm8.54,111.52H192.7V330.83h16.89Z"/><path class="cls-2" d="M288.78,287.24l16.89-2.91V422.56q-5.81,1.63-14.89,3.27a118.93,118.93,0,0,1-20.89,1.63A53,53,0,0,1,250.28,424a41.92,41.92,0,0,1-14.89-9.81,43.29,43.29,0,0,1-9.54-15.53,59.56,59.56,0,0,1-3.36-20.61,67.18,67.18,0,0,1,2.82-20,44.8,44.8,0,0,1,8.26-15.62,37.56,37.56,0,0,1,13.35-10.17A42.81,42.81,0,0,1,265,328.65a43.89,43.89,0,0,1,14.44,2.18,45.63,45.63,0,0,1,9.35,4.18Zm0,63.57a34.83,34.83,0,0,0-8.9-4.9,33.5,33.5,0,0,0-12.71-2.36,27.16,27.16,0,0,0-12.44,2.63,22.83,22.83,0,0,0-8.45,7.27,30.67,30.67,0,0,0-4.72,11,61,61,0,0,0-1.45,13.62q0,16.53,8.17,25.52t21.8,9a86.78,86.78,0,0,0,11.53-.63,54.55,54.55,0,0,0,7.17-1.36Z"/><path class="cls-2" d="M318.56,378.24a60.29,60.29,0,0,1,3.63-21.89,45.74,45.74,0,0,1,9.63-15.53,39.13,39.13,0,0,1,13.8-9.26,43.14,43.14,0,0,1,16-3.09q19.07,0,29.24,11.9T401,376.6v2.82a26.09,26.09,0,0,1-.18,3.18H336.18q1.09,14.71,8.54,22.34T368,412.56A61.94,61.94,0,0,0,383,411a53.81,53.81,0,0,0,9.17-3l2.36,14.17q-3.09,1.63-10.81,3.45a76.93,76.93,0,0,1-17.53,1.82q-12.35,0-21.34-3.72A39.78,39.78,0,0,1,330,413.47a41.83,41.83,0,0,1-8.63-15.53A65.57,65.57,0,0,1,318.56,378.24ZM383.41,369q.18-11.44-5.72-18.8t-16.25-7.36a22.28,22.28,0,0,0-10.26,2.27,24.23,24.23,0,0,0-7.54,5.9,27.19,27.19,0,0,0-4.81,8.36,41,41,0,0,0-2.27,9.63Z"/><path class="cls-2" d="M442.8,427.09q-15.62-.36-22.16-6.72t-6.54-19.8V287.24L431,284.34V397.85a27.29,27.29,0,0,0,.73,6.9,9.46,9.46,0,0,0,2.36,4.36,10.14,10.14,0,0,0,4.36,2.45,44.87,44.87,0,0,0,6.72,1.36Z"/><path class="cls-2" d="M461.5,313.76a10.84,10.84,0,0,1-7.72-3,11.87,11.87,0,0,1,0-16.16,11.44,11.44,0,0,1,15.44,0,11.86,11.86,0,0,1,0,16.16A10.84,10.84,0,0,1,461.5,313.76ZM470,425.28H453.15V330.83H470Z"/><path class="cls-2" d="M525.07,284.34a65.08,65.08,0,0,1,12.8,1.09,45.85,45.85,0,0,1,7.54,2L542.33,302a31.32,31.32,0,0,0-6.17-2.09,41.19,41.19,0,0,0-9.81-1q-11.81,0-16.53,6.45t-4.72,17.35v8.17h36.32V345H505.09v80.28H488.2v-103q0-18.16,8.9-28.06T525.07,284.34Z"/><path class="cls-2" d="M542.14,378.24a60.27,60.27,0,0,1,3.63-21.89,45.73,45.73,0,0,1,9.63-15.53,39.15,39.15,0,0,1,13.8-9.26,43.16,43.16,0,0,1,16-3.09q19.07,0,29.24,11.9T624.6,376.6v2.82a26.71,26.71,0,0,1-.18,3.18H559.76q1.09,14.71,8.54,22.34t23.25,7.63a61.92,61.92,0,0,0,15-1.54,53.78,53.78,0,0,0,9.17-3l2.36,14.17q-3.09,1.63-10.81,3.45a76.94,76.94,0,0,1-17.53,1.82q-12.35,0-21.34-3.72a39.76,39.76,0,0,1-14.8-10.26A41.84,41.84,0,0,1,545,397.94,65.57,65.57,0,0,1,542.14,378.24ZM607,369q.18-11.44-5.72-18.8T585,342.82a22.28,22.28,0,0,0-10.26,2.27,24.22,24.22,0,0,0-7.54,5.9,27.19,27.19,0,0,0-4.81,8.36,41.09,41.09,0,0,0-2.27,9.63Z"/><path class="cls-2" d="M100.26,458.33v5.38h-2V450.45h2.27a10.33,10.33,0,0,1,2.51.23,3.38,3.38,0,0,1,1.51.88,3.77,3.77,0,0,1,1.14,2.81,3.63,3.63,0,0,1-1.22,2.88,4.83,4.83,0,0,1-3.29,1.07Zm0-1.86H101q2.76,0,2.76-2.12t-2.84-2.05h-.66Z"/><path class="cls-2" d="M122.05,450.45v11.37h3.9v1.88h-5.89V450.45Z"/><path class="cls-2" d="M148.67,460.49H143l-1.48,3.22h-2.15l6.56-14.08,6.33,14.08h-2.19Zm-.82-1.88-2-4.51-2.06,4.51Z"/><path class="cls-2" d="M166.21,463.71V449.56l9.66,10.11v-9.21h2v14.06l-9.66-10.08v9.28Z"/><path class="cls-2" d="M200.67,452.33h-5.31v3.18h5.16v1.88h-5.16v4.43h5.31v1.88h-7.31V450.45h7.31Z"/><path class="cls-2" d="M219.63,450.45V459a9.06,9.06,0,0,1-.21,2.29,3.47,3.47,0,0,1-.73,1.45,3.33,3.33,0,0,1-2.66,1.17,4.47,4.47,0,0,1-2.34-.65l1-1.71a2.49,2.49,0,0,0,1.36.49,1.26,1.26,0,0,0,1.24-.68,5.5,5.5,0,0,0,.36-2.37v-8.58Z"/><path class="cls-2" d="M242.44,460.49h-5.67l-1.48,3.22h-2.15l6.56-14.08L246,463.71h-2.19Zm-.82-1.88-2-4.51-2.06,4.51Z"/><path class="cls-2" d="M259.51,463.71l2.79-14.25,4.55,10.3,4.71-10.3,2.51,14.25H272l-1.28-8-3.92,8.61L263,455.7l-1.42,8Z"/><path class="cls-2" d="M296.49,452.33h-5.31v3.18h5.16v1.88h-5.16v4.43h5.31v1.88h-7.31V450.45h7.31Z"/><path class="cls-2" d="M311.42,463.71V449.56l9.66,10.11v-9.21h2v14.06l-9.67-10.08v9.28Z"/><path class="cls-2" d="M342.22,452.33v11.37h-2V452.33h-3v-1.88h8.09v1.88Z"/><path class="cls-2" d="M358.27,457a6.48,6.48,0,0,1,2-4.81,6.75,6.75,0,0,1,4.91-2,6.93,6.93,0,0,1,6.89,6.89,6.52,6.52,0,0,1-2,4.85,7,7,0,0,1-9.56.22A6.51,6.51,0,0,1,358.27,457Zm2,0a4.8,4.8,0,0,0,1.48,3.61,4.89,4.89,0,0,0,6.91,0,5.14,5.14,0,0,0,0-7.11,4.66,4.66,0,0,0-3.48-1.44,4.73,4.73,0,0,0-3.5,1.44A4.79,4.79,0,0,0,360.28,457Z"/><path class="cls-2" d="M411.28,452.33h-4.62v3.18h4.45v1.88h-4.45v6.31h-2V450.45h6.62Z"/><path class="cls-2" d="M427.9,450.45v13.25h-2V450.45Z"/><path class="cls-2" d="M443.39,463.71V449.56l9.67,10.11v-9.21h2v14.06l-9.66-10.08v9.28Z"/><path class="cls-2" d="M478.42,460.49h-5.68l-1.47,3.22h-2.15l6.56-14.08L482,463.71h-2.19Zm-.82-1.88-2-4.51-2.06,4.51Z"/><path class="cls-2" d="M496,463.71V449.56l9.66,10.11v-9.21h2v14.06L498,454.43v9.28Z"/><path class="cls-2" d="M533,451.17v2.37a5.55,5.55,0,0,0-3.59-1.45,4.56,4.56,0,0,0-3.44,1.47,5,5,0,0,0-1.41,3.57,4.84,4.84,0,0,0,1.41,3.52,4.67,4.67,0,0,0,3.45,1.43,4.24,4.24,0,0,0,1.79-.34,5.12,5.12,0,0,0,.86-.46,10.75,10.75,0,0,0,.93-.7V463a7.23,7.23,0,0,1-3.6,1,6.64,6.64,0,0,1-4.85-2,6.56,6.56,0,0,1-2-4.82,6.81,6.81,0,0,1,1.67-4.52,6.67,6.67,0,0,1,5.33-2.43A6.76,6.76,0,0,1,533,451.17Z"/><path class="cls-2" d="M555.15,452.33h-5.31v3.18H555v1.88h-5.16v4.43h5.31v1.88h-7.31V450.45h7.31Z"/><path class="cls-2" d="M572.08,450.45v13.25h-2V450.45Z"/><path class="cls-2" d="M592.06,458.06l4.1,5.65h-2.45l-3.78-5.42h-.36v5.42h-2V450.45h2.34a5.85,5.85,0,0,1,3.79,1,3.62,3.62,0,0,1,1.29,2.9,3.77,3.77,0,0,1-.81,2.42A3.6,3.6,0,0,1,592.06,458.06Zm-2.49-1.52h.63q2.84,0,2.84-2.17t-2.76-2h-.71Z"/><path class="cls-2" d="M609.5,457a6.49,6.49,0,0,1,2.05-4.81,6.75,6.75,0,0,1,4.91-2,6.93,6.93,0,0,1,6.89,6.89,6.52,6.52,0,0,1-2,4.85,7,7,0,0,1-9.56.22A6.51,6.51,0,0,1,609.5,457Zm2,0a4.8,4.8,0,0,0,1.47,3.61,4.89,4.89,0,0,0,6.91,0,5.14,5.14,0,0,0,0-7.11,4.67,4.67,0,0,0-3.48-1.44,4.73,4.73,0,0,0-3.49,1.44A4.78,4.78,0,0,0,611.51,457Z"/></g></g></svg>